{
    "asset" : {
        "generator" : "Khronos glTF Blender I/O v3.3.27",
        "version" : "2.0"
    },
    "scene" : 0,
    "scenes" : [
        {
            "name" : "Scene",
            "nodes" : [
                0
            ]
        }
    ],
    "nodes" : [
        {
            "mesh" : 0,
            "name" : "Lamp_black.001",
            "rotation" : [
                -0.7071068286895752,
                0,
                0,
                0.7071067094802856
            ],
            "scale" : [
                -0.05109775811433792,
                -0.05109776556491852,
                -0.05109776556491852
            ],
            "translation" : [
                -24.272747039794922,
                3.4314279556274414,
                16.200801849365234
            ]
        }
    ],
    "materials" : [
        {
            "alphaMode" : "BLEND",
            "doubleSided" : true,
            "name" : "Lamp_glass",
            "pbrMetallicRoughness" : {
                "baseColorFactor" : [
                    0.800000011920929,
                    0.800000011920929,
                    0.800000011920929,
                    0.20000000298023224
                ],
                "metallicFactor" : 0,
                "roughnessFactor" : 0.5
            }
        },
        {
            "doubleSided" : true,
            "name" : "Lamp_black",
            "pbrMetallicRoughness" : {
                "baseColorFactor" : [
                    0,
                    0,
                    0,
                    1
                ],
                "roughnessFactor" : 0.5
            }
        }
    ],
    "meshes" : [
        {
            "name" : "Cylinder.010",
            "primitives" : [
                {
                    "attributes" : {
                        "POSITION" : 0,
                        "NORMAL" : 1,
                        "TEXCOORD_0" : 2
                    },
                    "indices" : 3,
                    "material" : 0
                },
                {
                    "attributes" : {
                        "POSITION" : 4,
                        "NORMAL" : 5,
                        "TEXCOORD_0" : 6
                    },
                    "indices" : 7,
                    "material" : 1
                }
            ]
        }
    ],
    "accessors" : [
        {
            "bufferView" : 0,
            "componentType" : 5126,
            "count" : 100,
            "max" : [
                1,
                8.882526397705078,
                1.0000003576278687
            ],
            "min" : [
                -1,
                -8.882526397705078,
                -1
            ],
            "type" : "VEC3"
        },
        {
            "bufferView" : 1,
            "componentType" : 5126,
            "count" : 100,
            "type" : "VEC3"
        },
        {
            "bufferView" : 2,
            "componentType" : 5126,
            "count" : 100,
            "type" : "VEC2"
        },
        {
            "bufferView" : 3,
            "componentType" : 5123,
            "count" : 288,
            "type" : "SCALAR"
        },
        {
            "bufferView" : 4,
            "componentType" : 5126,
            "count" : 947,
            "max" : [
                1.084094762802124,
                9.163418769836426,
                1.7445223331451416
            ],
            "min" : [
                -1.5542254447937012,
                -9.163418769836426,
                -1.7886948585510254
            ],
            "type" : "VEC3"
        },
        {
            "bufferView" : 5,
            "componentType" : 5126,
            "count" : 947,
            "type" : "VEC3"
        },
        {
            "bufferView" : 6,
            "componentType" : 5126,
            "count" : 947,
            "type" : "VEC2"
        },
        {
            "bufferView" : 7,
            "componentType" : 5123,
            "count" : 1464,
            "type" : "SCALAR"
        }
    ],
    "bufferViews" : [
        {
            "buffer" : 0,
            "byteLength" : 1200,
            "byteOffset" : 0,
            "target" : 34962
        },
        {
            "buffer" : 0,
            "byteLength" : 1200,
            "byteOffset" : 1200,
            "target" : 34962
        },
        {
            "buffer" : 0,
            "byteLength" : 800,
            "byteOffset" : 2400,
            "target" : 34962
        },
        {
            "buffer" : 0,
            "byteLength" : 576,
            "byteOffset" : 3200,
            "target" : 34963
        },
        {
            "buffer" : 0,
            "byteLength" : 11364,
            "byteOffset" : 3776,
            "target" : 34962
        },
        {
            "buffer" : 0,
            "byteLength" : 11364,
            "byteOffset" : 15140,
            "target" : 34962
        },
        {
            "buffer" : 0,
            "byteLength" : 7576,
            "byteOffset" : 26504,
            "target" : 34962
        },
        {
            "buffer" : 0,
            "byteLength" : 2928,
            "byteOffset" : 34080,
            "target" : 34963
        }
    ],
    "buffers" : [
        {
            "byteLength" : 37008,
            "uri" : "1860_bathroom_Light_syden_black.bin"
        }
    ]
}
