{
    "asset" : {
        "generator" : "Khronos glTF Blender I/O v3.3.27",
        "version" : "2.0"
    },
    "extensionsUsed" : [
        "KHR_materials_specular",
        "KHR_materials_ior"
    ],
    "scene" : 0,
    "scenes" : [
        {
            "name" : "Scene",
            "nodes" : [
                0
            ]
        }
    ],
    "nodes" : [
        {
            "mesh" : 0,
            "name" : "Cia_gold.003",
            "rotation" : [
                -0.7071068286895752,
                0,
                0,
                0.7071067094802856
            ],
            "scale" : [
                -0.034405242651700974,
                -0.03440524637699127,
                -0.03440524637699127
            ],
            "translation" : [
                -24.303558349609375,
                1.4824936389923096,
                30.199451446533203
            ]
        }
    ],
    "materials" : [
        {
            "doubleSided" : true,
            "extensions" : {
                "KHR_materials_specular" : {
                    "specularColorFactor" : [
                        0,
                        0,
                        0
                    ]
                },
                "KHR_materials_ior" : {
                    "ior" : 1.4500000476837158
                }
            },
            "name" : "Cia_brushed_gold",
            "pbrMetallicRoughness" : {
                "baseColorFactor" : [
                    0.5775806307792664,
                    0.37626221776008606,
                    0.1247718334197998,
                    1
                ],
                "metallicFactor" : 0,
                "roughnessFactor" : 0.6000000238418579
            }
        }
    ],
    "meshes" : [
        {
            "name" : "Cylinder.048",
            "primitives" : [
                {
                    "attributes" : {
                        "POSITION" : 0,
                        "NORMAL" : 1,
                        "TEXCOORD_0" : 2
                    },
                    "indices" : 3,
                    "material" : 0
                }
            ]
        }
    ],
    "accessors" : [
        {
            "bufferView" : 0,
            "componentType" : 5126,
            "count" : 7663,
            "max" : [
                7.221996307373047,
                37.75146484375,
                3.401176691055298
            ],
            "min" : [
                -1.000002384185791,
                -425.6412658691406,
                -7.4992265701293945
            ],
            "type" : "VEC3"
        },
        {
            "bufferView" : 1,
            "componentType" : 5126,
            "count" : 7663,
            "type" : "VEC3"
        },
        {
            "bufferView" : 2,
            "componentType" : 5126,
            "count" : 7663,
            "type" : "VEC2"
        },
        {
            "bufferView" : 3,
            "componentType" : 5123,
            "count" : 26172,
            "type" : "SCALAR"
        }
    ],
    "bufferViews" : [
        {
            "buffer" : 0,
            "byteLength" : 91956,
            "byteOffset" : 0,
            "target" : 34962
        },
        {
            "buffer" : 0,
            "byteLength" : 91956,
            "byteOffset" : 91956,
            "target" : 34962
        },
        {
            "buffer" : 0,
            "byteLength" : 61304,
            "byteOffset" : 183912,
            "target" : 34962
        },
        {
            "buffer" : 0,
            "byteLength" : 52344,
            "byteOffset" : 245216,
            "target" : 34963
        }
    ],
    "buffers" : [
        {
            "byteLength" : 297560,
            "uri" : "1860_bathroom_faucet_Cia_gold.bin"
        }
    ]
}
