{
    "asset" : {
        "generator" : "Khronos glTF Blender I/O v3.3.27",
        "version" : "2.0"
    },
    "scene" : 0,
    "scenes" : [
        {
            "name" : "Scene",
            "nodes" : [
                0
            ]
        }
    ],
    "nodes" : [
        {
            "mesh" : 0,
            "name" : "Align Chrome",
            "rotation" : [
                0,
                0.7071068286895752,
                0,
                0.7071067094802856
            ],
            "scale" : [
                0.02001485973596573,
                0.02001485787332058,
                0.02001485973596573
            ],
            "translation" : [
                -10.290210723876953,
                1.4612220525741577,
                23.552139282226562
            ]
        }
    ],
    "materials" : [
        {
            "doubleSided" : true,
            "name" : "Chrrome.001",
            "pbrMetallicRoughness" : {
                "baseColorTexture" : {
                    "index" : 0
                },
                "metallicFactor" : 0,
                "roughnessFactor" : 0.35039401054382324
            }
        }
    ],
    "meshes" : [
        {
            "name" : "Cube.043",
            "primitives" : [
                {
                    "attributes" : {
                        "POSITION" : 0,
                        "NORMAL" : 1,
                        "TEXCOORD_0" : 2
                    },
                    "indices" : 3,
                    "material" : 0
                }
            ]
        }
    ],
    "textures" : [
        {
            "sampler" : 0,
            "source" : 0
        }
    ],
    "images" : [
        {
            "mimeType" : "image/jpeg",
            "name" : "scnmcgnp_2K_Albedo",
            "uri" : "textures/scnmcgnp_2K_Albedo.jpg"
        }
    ],
    "accessors" : [
        {
            "bufferView" : 0,
            "componentType" : 5126,
            "count" : 5759,
            "max" : [
                4.247835636138916,
                15.210216522216797,
                1.1906907558441162
            ],
            "min" : [
                -0.9454568028450012,
                -3.4237802028656006,
                -12.673439025878906
            ],
            "type" : "VEC3"
        },
        {
            "bufferView" : 1,
            "componentType" : 5126,
            "count" : 5759,
            "type" : "VEC3"
        },
        {
            "bufferView" : 2,
            "componentType" : 5126,
            "count" : 5759,
            "type" : "VEC2"
        },
        {
            "bufferView" : 3,
            "componentType" : 5123,
            "count" : 8808,
            "type" : "SCALAR"
        }
    ],
    "bufferViews" : [
        {
            "buffer" : 0,
            "byteLength" : 69108,
            "byteOffset" : 0,
            "target" : 34962
        },
        {
            "buffer" : 0,
            "byteLength" : 69108,
            "byteOffset" : 69108,
            "target" : 34962
        },
        {
            "buffer" : 0,
            "byteLength" : 46072,
            "byteOffset" : 138216,
            "target" : 34962
        },
        {
            "buffer" : 0,
            "byteLength" : 17616,
            "byteOffset" : 184288,
            "target" : 34963
        }
    ],
    "samplers" : [
        {
            "magFilter" : 9729,
            "minFilter" : 9987
        }
    ],
    "buffers" : [
        {
            "byteLength" : 201904,
            "uri" : "1860_kitchen_faucet_AlignChrome.bin"
        }
    ]
}
