{
    "asset" : {
        "generator" : "Khronos glTF Blender I/O v3.3.27",
        "version" : "2.0"
    },
    "scene" : 0,
    "scenes" : [
        {
            "name" : "Scene",
            "nodes" : [
                0
            ]
        }
    ],
    "nodes" : [
        {
            "mesh" : 0,
            "name" : "MB",
            "rotation" : [
                0.7071068286895752,
                0,
                0,
                0.7071067094802856
            ],
            "scale" : [
                -0.01369056198745966,
                -0.013690563850104809,
                -0.013690563850104809
            ],
            "translation" : [
                -24.32509994506836,
                1.528335690498352,
                15.686123847961426
            ]
        }
    ],
    "materials" : [
        {
            "doubleSided" : true,
            "name" : "Matte Black",
            "pbrMetallicRoughness" : {
                "baseColorFactor" : [
                    0,
                    0,
                    0,
                    1
                ],
                "metallicFactor" : 0,
                "roughnessFactor" : 0.5
            }
        }
    ],
    "meshes" : [
        {
            "name" : "Cylinder.034",
            "primitives" : [
                {
                    "attributes" : {
                        "POSITION" : 0,
                        "NORMAL" : 1,
                        "TEXCOORD_0" : 2
                    },
                    "indices" : 3,
                    "material" : 0
                }
            ]
        }
    ],
    "accessors" : [
        {
            "bufferView" : 0,
            "componentType" : 5126,
            "count" : 10146,
            "max" : [
                14.259279251098633,
                15.826852798461914,
                15.730982780456543
            ],
            "min" : [
                -5.447851657867432,
                -1166.9808349609375,
                -12.195253372192383
            ],
            "type" : "VEC3"
        },
        {
            "bufferView" : 1,
            "componentType" : 5126,
            "count" : 10146,
            "type" : "VEC3"
        },
        {
            "bufferView" : 2,
            "componentType" : 5126,
            "count" : 10146,
            "type" : "VEC2"
        },
        {
            "bufferView" : 3,
            "componentType" : 5123,
            "count" : 27696,
            "type" : "SCALAR"
        }
    ],
    "bufferViews" : [
        {
            "buffer" : 0,
            "byteLength" : 121752,
            "byteOffset" : 0,
            "target" : 34962
        },
        {
            "buffer" : 0,
            "byteLength" : 121752,
            "byteOffset" : 121752,
            "target" : 34962
        },
        {
            "buffer" : 0,
            "byteLength" : 81168,
            "byteOffset" : 243504,
            "target" : 34962
        },
        {
            "buffer" : 0,
            "byteLength" : 55392,
            "byteOffset" : 324672,
            "target" : 34963
        }
    ],
    "buffers" : [
        {
            "byteLength" : 380064,
            "uri" : "1860_bathroom_faucet_GibsonMateBlack.bin"
        }
    ]
}
