{
    "asset" : {
        "generator" : "Khronos glTF Blender I/O v3.3.27",
        "version" : "2.0"
    },
    "scene" : 0,
    "scenes" : [
        {
            "name" : "Scene",
            "nodes" : [
                0
            ]
        }
    ],
    "nodes" : [
        {
            "mesh" : 0,
            "name" : "Chrome_3",
            "rotation" : [
                0.7071068286895752,
                0,
                0,
                0.7071067094802856
            ],
            "scale" : [
                -0.01369056198745966,
                -0.013690563850104809,
                -0.013690563850104809
            ],
            "translation" : [
                -24.32509994506836,
                1.528335690498352,
                30.20034408569336
            ]
        }
    ],
    "materials" : [
        {
            "doubleSided" : true,
            "name" : "Chrrome",
            "pbrMetallicRoughness" : {
                "baseColorTexture" : {
                    "index" : 0
                },
                "metallicFactor" : 0,
                "roughnessFactor" : 0.20000000298023224
            }
        }
    ],
    "meshes" : [
        {
            "name" : "Cylinder.039",
            "primitives" : [
                {
                    "attributes" : {
                        "POSITION" : 0,
                        "NORMAL" : 1,
                        "TEXCOORD_0" : 2
                    },
                    "indices" : 3,
                    "material" : 0
                }
            ]
        }
    ],
    "textures" : [
        {
            "sampler" : 0,
            "source" : 0
        }
    ],
    "images" : [
        {
            "mimeType" : "image/jpeg",
            "name" : "sfekebvc_2K_Albedo",
            "uri" : "textures/sfekebvc_2K_Albedo.jpg"
        }
    ],
    "accessors" : [
        {
            "bufferView" : 0,
            "componentType" : 5126,
            "count" : 10043,
            "max" : [
                14.259279251098633,
                1075.989501953125,
                15.73083782196045
            ],
            "min" : [
                -5.447851657867432,
                -106.8182373046875,
                -12.195389747619629
            ],
            "type" : "VEC3"
        },
        {
            "bufferView" : 1,
            "componentType" : 5126,
            "count" : 10043,
            "type" : "VEC3"
        },
        {
            "bufferView" : 2,
            "componentType" : 5126,
            "count" : 10043,
            "type" : "VEC2"
        },
        {
            "bufferView" : 3,
            "componentType" : 5123,
            "count" : 27696,
            "type" : "SCALAR"
        }
    ],
    "bufferViews" : [
        {
            "buffer" : 0,
            "byteLength" : 120516,
            "byteOffset" : 0,
            "target" : 34962
        },
        {
            "buffer" : 0,
            "byteLength" : 120516,
            "byteOffset" : 120516,
            "target" : 34962
        },
        {
            "buffer" : 0,
            "byteLength" : 80344,
            "byteOffset" : 241032,
            "target" : 34962
        },
        {
            "buffer" : 0,
            "byteLength" : 55392,
            "byteOffset" : 321376,
            "target" : 34963
        }
    ],
    "samplers" : [
        {
            "magFilter" : 9729,
            "minFilter" : 9987
        }
    ],
    "buffers" : [
        {
            "byteLength" : 376768,
            "uri" : "1860_bathroom_faucet_GibsonChrome.bin"
        }
    ]
}
