{
    "asset" : {
        "generator" : "Khronos glTF Blender I/O v3.3.27",
        "version" : "2.0"
    },
    "scene" : 0,
    "scenes" : [
        {
            "name" : "Scene",
            "nodes" : [
                0
            ]
        }
    ],
    "nodes" : [
        {
            "mesh" : 0,
            "name" : "Cabinet_linen.001",
            "rotation" : [
                0.49999988079071045,
                -0.5,
                0.5000001788139343,
                0.49999988079071045
            ],
            "translation" : [
                -33.07000732421875,
                0.6466658711433411,
                19.3266658782959
            ]
        }
    ],
    "materials" : [
        {
            "doubleSided" : true,
            "name" : "KC_Linen",
            "pbrMetallicRoughness" : {
                "baseColorTexture" : {
                    "index" : 0
                },
                "metallicFactor" : 0,
                "roughnessFactor" : 0.5
            }
        }
    ],
    "meshes" : [
        {
            "name" : "Line23628.006",
            "primitives" : [
                {
                    "attributes" : {
                        "POSITION" : 0,
                        "NORMAL" : 1,
                        "TEXCOORD_0" : 2
                    },
                    "indices" : 3,
                    "material" : 0
                }
            ]
        }
    ],
    "textures" : [
        {
            "sampler" : 0,
            "source" : 0
        }
    ],
    "images" : [
        {
            "mimeType" : "image/jpeg",
            "name" : "Linen",
            "uri" : "textures/Linen.jpg"
        }
    ],
    "accessors" : [
        {
            "bufferView" : 0,
            "componentType" : 5126,
            "count" : 13619,
            "max" : [
                1.5733352899551392,
                1.1599889993667603,
                0.34666720032691956
            ],
            "min" : [
                -3.6266732215881348,
                -6.470016956329346,
                -2.5833323001861572
            ],
            "type" : "VEC3"
        },
        {
            "bufferView" : 1,
            "componentType" : 5126,
            "count" : 13619,
            "type" : "VEC3"
        },
        {
            "bufferView" : 2,
            "componentType" : 5126,
            "count" : 13619,
            "type" : "VEC2"
        },
        {
            "bufferView" : 3,
            "componentType" : 5123,
            "count" : 14784,
            "type" : "SCALAR"
        }
    ],
    "bufferViews" : [
        {
            "buffer" : 0,
            "byteLength" : 163428,
            "byteOffset" : 0,
            "target" : 34962
        },
        {
            "buffer" : 0,
            "byteLength" : 163428,
            "byteOffset" : 163428,
            "target" : 34962
        },
        {
            "buffer" : 0,
            "byteLength" : 108952,
            "byteOffset" : 326856,
            "target" : 34962
        },
        {
            "buffer" : 0,
            "byteLength" : 29568,
            "byteOffset" : 435808,
            "target" : 34963
        }
    ],
    "samplers" : [
        {
            "magFilter" : 9729,
            "minFilter" : 9987
        }
    ],
    "buffers" : [
        {
            "byteLength" : 465376,
            "uri" : "1989_kitchen_cabinets_linen.bin"
        }
    ]
}
