{
    "asset" : {
        "generator" : "Khronos glTF Blender I/O v3.3.27",
        "version" : "2.0"
    },
    "scene" : 0,
    "scenes" : [
        {
            "name" : "Scene",
            "nodes" : [
                0
            ]
        }
    ],
    "nodes" : [
        {
            "mesh" : 0,
            "name" : "_cupsLamp_black",
            "rotation" : [
                -0.7071068286895752,
                0,
                -0.7071068286895752,
                0
            ],
            "scale" : [
                -0.4976465702056885,
                -0.497646689414978,
                -0.4976465702056885
            ],
            "translation" : [
                -30.644624710083008,
                3.415235996246338,
                15.413155555725098
            ]
        }
    ],
    "materials" : [
        {
            "doubleSided" : true,
            "name" : "Lamp_black",
            "pbrMetallicRoughness" : {
                "baseColorFactor" : [
                    0,
                    0,
                    0,
                    1
                ],
                "roughnessFactor" : 0.5
            }
        },
        {
            "doubleSided" : true,
            "name" : "white",
            "pbrMetallicRoughness" : {
                "metallicFactor" : 0
            }
        }
    ],
    "meshes" : [
        {
            "name" : "Cube.036",
            "primitives" : [
                {
                    "attributes" : {
                        "POSITION" : 0,
                        "NORMAL" : 1,
                        "TEXCOORD_0" : 2
                    },
                    "indices" : 3,
                    "material" : 0
                },
                {
                    "attributes" : {
                        "POSITION" : 4,
                        "NORMAL" : 5,
                        "TEXCOORD_0" : 6
                    },
                    "indices" : 7,
                    "material" : 1
                }
            ]
        }
    ],
    "accessors" : [
        {
            "bufferView" : 0,
            "componentType" : 5126,
            "count" : 3735,
            "max" : [
                0.16101253032684326,
                0.20727956295013428,
                1.039832353591919
            ],
            "min" : [
                -30.144153594970703,
                -0.33572113513946533,
                -20.383821487426758
            ],
            "type" : "VEC3"
        },
        {
            "bufferView" : 1,
            "componentType" : 5126,
            "count" : 3735,
            "type" : "VEC3"
        },
        {
            "bufferView" : 2,
            "componentType" : 5126,
            "count" : 3735,
            "type" : "VEC2"
        },
        {
            "bufferView" : 3,
            "componentType" : 5123,
            "count" : 7728,
            "type" : "SCALAR"
        },
        {
            "bufferView" : 4,
            "componentType" : 5126,
            "count" : 3256,
            "max" : [
                0.24909472465515137,
                0.483140230178833,
                1.0089024305343628
            ],
            "min" : [
                -30.09187126159668,
                0.010231075808405876,
                -20.47190284729004
            ],
            "type" : "VEC3"
        },
        {
            "bufferView" : 5,
            "componentType" : 5126,
            "count" : 3256,
            "type" : "VEC3"
        },
        {
            "bufferView" : 6,
            "componentType" : 5126,
            "count" : 3256,
            "type" : "VEC2"
        },
        {
            "bufferView" : 7,
            "componentType" : 5123,
            "count" : 7704,
            "type" : "SCALAR"
        }
    ],
    "bufferViews" : [
        {
            "buffer" : 0,
            "byteLength" : 44820,
            "byteOffset" : 0,
            "target" : 34962
        },
        {
            "buffer" : 0,
            "byteLength" : 44820,
            "byteOffset" : 44820,
            "target" : 34962
        },
        {
            "buffer" : 0,
            "byteLength" : 29880,
            "byteOffset" : 89640,
            "target" : 34962
        },
        {
            "buffer" : 0,
            "byteLength" : 15456,
            "byteOffset" : 119520,
            "target" : 34963
        },
        {
            "buffer" : 0,
            "byteLength" : 39072,
            "byteOffset" : 134976,
            "target" : 34962
        },
        {
            "buffer" : 0,
            "byteLength" : 39072,
            "byteOffset" : 174048,
            "target" : 34962
        },
        {
            "buffer" : 0,
            "byteLength" : 26048,
            "byteOffset" : 213120,
            "target" : 34962
        },
        {
            "buffer" : 0,
            "byteLength" : 15408,
            "byteOffset" : 239168,
            "target" : 34963
        }
    ],
    "buffers" : [
        {
            "byteLength" : 254576,
            "uri" : "1989_bathroom_Light_Windom_black.bin"
        }
    ]
}
