{
    "asset" : {
        "generator" : "Khronos glTF Blender I/O v3.3.27",
        "version" : "2.0"
    },
    "scene" : 0,
    "scenes" : [
        {
            "name" : "Scene",
            "nodes" : [
                0
            ]
        }
    ],
    "nodes" : [
        {
            "mesh" : 0,
            "name" : "Cabinet_bolder",
            "rotation" : [
                0.49999988079071045,
                -0.5,
                0.5000001788139343,
                0.49999988079071045
            ],
            "translation" : [
                -33.07000732421875,
                0.6466658711433411,
                19.3266658782959
            ]
        }
    ],
    "materials" : [
        {
            "doubleSided" : true,
            "name" : "KC_Bolder",
            "pbrMetallicRoughness" : {
                "baseColorTexture" : {
                    "index" : 0
                },
                "metallicFactor" : 0,
                "roughnessFactor" : 0.5
            }
        }
    ],
    "meshes" : [
        {
            "name" : "Line23628",
            "primitives" : [
                {
                    "attributes" : {
                        "POSITION" : 0,
                        "NORMAL" : 1,
                        "TEXCOORD_0" : 2
                    },
                    "indices" : 3,
                    "material" : 0
                }
            ]
        }
    ],
    "textures" : [
        {
            "sampler" : 0,
            "source" : 0
        }
    ],
    "images" : [
        {
            "mimeType" : "image/jpeg",
            "name" : "Bolder",
            "uri" : "textures/Bolder.jpg"
        }
    ],
    "accessors" : [
        {
            "bufferView" : 0,
            "componentType" : 5126,
            "count" : 2899,
            "max" : [
                10.031562805175781,
                0.3325059413909912,
                0.4166692793369293
            ],
            "min" : [
                -4.676668167114258,
                -16.667003631591797,
                -0.6833345890045166
            ],
            "type" : "VEC3"
        },
        {
            "bufferView" : 1,
            "componentType" : 5126,
            "count" : 2899,
            "type" : "VEC3"
        },
        {
            "bufferView" : 2,
            "componentType" : 5126,
            "count" : 2899,
            "type" : "VEC2"
        },
        {
            "bufferView" : 3,
            "componentType" : 5123,
            "count" : 3024,
            "type" : "SCALAR"
        }
    ],
    "bufferViews" : [
        {
            "buffer" : 0,
            "byteLength" : 34788,
            "byteOffset" : 0,
            "target" : 34962
        },
        {
            "buffer" : 0,
            "byteLength" : 34788,
            "byteOffset" : 34788,
            "target" : 34962
        },
        {
            "buffer" : 0,
            "byteLength" : 23192,
            "byteOffset" : 69576,
            "target" : 34962
        },
        {
            "buffer" : 0,
            "byteLength" : 6048,
            "byteOffset" : 92768,
            "target" : 34963
        }
    ],
    "samplers" : [
        {
            "magFilter" : 9729,
            "minFilter" : 9987
        }
    ],
    "buffers" : [
        {
            "byteLength" : 98816,
            "uri" : "1989_bathroom_Cabinets_Bolder_.bin"
        }
    ]
}
