{
    "asset" : {
        "generator" : "Khronos glTF Blender I/O v3.3.27",
        "version" : "2.0"
    },
    "scene" : 0,
    "scenes" : [
        {
            "name" : "Scene",
            "nodes" : [
                0
            ]
        }
    ],
    "nodes" : [
        {
            "mesh" : 0,
            "name" : "Countertop_quartz_et_noir",
            "translation" : [
                -32.40000534057617,
                1.309999942779541,
                20.100006103515625
            ]
        }
    ],
    "materials" : [
        {
            "doubleSided" : true,
            "name" : "Countertops_Quartz Et Noir",
            "pbrMetallicRoughness" : {
                "baseColorTexture" : {
                    "index" : 0
                },
                "metallicFactor" : 0,
                "roughnessFactor" : 0.0984455943107605
            }
        }
    ],
    "meshes" : [
        {
            "name" : "Line22374.005",
            "primitives" : [
                {
                    "attributes" : {
                        "POSITION" : 0,
                        "NORMAL" : 1,
                        "TEXCOORD_0" : 2
                    },
                    "indices" : 3,
                    "material" : 0
                }
            ]
        }
    ],
    "textures" : [
        {
            "sampler" : 0,
            "source" : 0
        }
    ],
    "images" : [
        {
            "mimeType" : "image/jpeg",
            "name" : "CT_5_new",
            "uri" : "textures/CT_5_new.jpg"
        }
    ],
    "accessors" : [
        {
            "bufferView" : 0,
            "componentType" : 5126,
            "count" : 1154,
            "max" : [
                15.996997833251953,
                0.06000053137540817,
                9.304515838623047
            ],
            "min" : [
                -1.0025155544281006,
                0.020000049844384193,
                -5.495821475982666
            ],
            "type" : "VEC3"
        },
        {
            "bufferView" : 1,
            "componentType" : 5126,
            "count" : 1154,
            "type" : "VEC3"
        },
        {
            "bufferView" : 2,
            "componentType" : 5126,
            "count" : 1154,
            "type" : "VEC2"
        },
        {
            "bufferView" : 3,
            "componentType" : 5123,
            "count" : 1944,
            "type" : "SCALAR"
        }
    ],
    "bufferViews" : [
        {
            "buffer" : 0,
            "byteLength" : 13848,
            "byteOffset" : 0,
            "target" : 34962
        },
        {
            "buffer" : 0,
            "byteLength" : 13848,
            "byteOffset" : 13848,
            "target" : 34962
        },
        {
            "buffer" : 0,
            "byteLength" : 9232,
            "byteOffset" : 27696,
            "target" : 34962
        },
        {
            "buffer" : 0,
            "byteLength" : 3888,
            "byteOffset" : 36928,
            "target" : 34963
        }
    ],
    "samplers" : [
        {
            "magFilter" : 9729,
            "minFilter" : 9987
        }
    ],
    "buffers" : [
        {
            "byteLength" : 40816,
            "uri" : "1989_bathroom_Countertops_Quartz_Et_Noir.bin"
        }
    ]
}
