{
    "asset" : {
        "generator" : "Khronos glTF Blender I/O v3.3.27",
        "version" : "2.0"
    },
    "scene" : 0,
    "scenes" : [
        {
            "name" : "Scene",
            "nodes" : [
                0
            ]
        }
    ],
    "nodes" : [
        {
            "mesh" : 0,
            "name" : "windonLamp_nickel",
            "rotation" : [
                -0.7071068286895752,
                0,
                -0.7071068286895752,
                0
            ],
            "scale" : [
                -0.4976465702056885,
                -0.497646689414978,
                -0.4976465702056885
            ],
            "translation" : [
                -30.644624710083008,
                3.415235996246338,
                15.413155555725098
            ]
        }
    ],
    "materials" : [
        {
            "doubleSided" : true,
            "name" : "White_metal",
            "pbrMetallicRoughness" : {
                "baseColorTexture" : {
                    "index" : 0
                },
                "roughnessFactor" : 0.5
            }
        },
        {
            "doubleSided" : true,
            "name" : "Lamp_black",
            "pbrMetallicRoughness" : {
                "baseColorFactor" : [
                    0,
                    0,
                    0,
                    1
                ],
                "roughnessFactor" : 0.5
            }
        },
        {
            "doubleSided" : true,
            "name" : "white",
            "pbrMetallicRoughness" : {
                "metallicFactor" : 0
            }
        }
    ],
    "meshes" : [
        {
            "name" : "Cube.028",
            "primitives" : [
                {
                    "attributes" : {
                        "POSITION" : 0,
                        "NORMAL" : 1,
                        "TEXCOORD_0" : 2
                    },
                    "indices" : 3,
                    "material" : 0
                },
                {
                    "attributes" : {
                        "POSITION" : 4,
                        "NORMAL" : 5,
                        "TEXCOORD_0" : 6
                    },
                    "indices" : 7,
                    "material" : 1
                },
                {
                    "attributes" : {
                        "POSITION" : 8,
                        "NORMAL" : 9,
                        "TEXCOORD_0" : 10
                    },
                    "indices" : 11,
                    "material" : 2
                }
            ]
        }
    ],
    "textures" : [
        {
            "sampler" : 0,
            "source" : 0
        }
    ],
    "images" : [
        {
            "mimeType" : "image/jpeg",
            "name" : "sfekebvc_2K_Albedo",
            "uri" : "textures/sfekebvc_2K_Albedo.jpg"
        }
    ],
    "accessors" : [
        {
            "bufferView" : 0,
            "componentType" : 5126,
            "count" : 226,
            "max" : [
                -0.19214534759521484,
                0.20727956295013428,
                1.039832353591919
            ],
            "min" : [
                -30.144153594970703,
                -0.33572113513946533,
                -20.030664443969727
            ],
            "type" : "VEC3"
        },
        {
            "bufferView" : 1,
            "componentType" : 5126,
            "count" : 226,
            "type" : "VEC3"
        },
        {
            "bufferView" : 2,
            "componentType" : 5126,
            "count" : 226,
            "type" : "VEC2"
        },
        {
            "bufferView" : 3,
            "componentType" : 5123,
            "count" : 360,
            "type" : "SCALAR"
        },
        {
            "bufferView" : 4,
            "componentType" : 5126,
            "count" : 3509,
            "max" : [
                0.16101253032684326,
                0.013442039489746094,
                0.9215176105499268
            ],
            "min" : [
                -30.0064640045166,
                -0.2672829329967499,
                -20.383821487426758
            ],
            "type" : "VEC3"
        },
        {
            "bufferView" : 5,
            "componentType" : 5126,
            "count" : 3509,
            "type" : "VEC3"
        },
        {
            "bufferView" : 6,
            "componentType" : 5126,
            "count" : 3509,
            "type" : "VEC2"
        },
        {
            "bufferView" : 7,
            "componentType" : 5123,
            "count" : 7368,
            "type" : "SCALAR"
        },
        {
            "bufferView" : 8,
            "componentType" : 5126,
            "count" : 3256,
            "max" : [
                0.24909472465515137,
                0.483140230178833,
                1.0089024305343628
            ],
            "min" : [
                -30.09187126159668,
                0.010231075808405876,
                -20.47190284729004
            ],
            "type" : "VEC3"
        },
        {
            "bufferView" : 9,
            "componentType" : 5126,
            "count" : 3256,
            "type" : "VEC3"
        },
        {
            "bufferView" : 10,
            "componentType" : 5126,
            "count" : 3256,
            "type" : "VEC2"
        },
        {
            "bufferView" : 11,
            "componentType" : 5123,
            "count" : 7704,
            "type" : "SCALAR"
        }
    ],
    "bufferViews" : [
        {
            "buffer" : 0,
            "byteLength" : 2712,
            "byteOffset" : 0,
            "target" : 34962
        },
        {
            "buffer" : 0,
            "byteLength" : 2712,
            "byteOffset" : 2712,
            "target" : 34962
        },
        {
            "buffer" : 0,
            "byteLength" : 1808,
            "byteOffset" : 5424,
            "target" : 34962
        },
        {
            "buffer" : 0,
            "byteLength" : 720,
            "byteOffset" : 7232,
            "target" : 34963
        },
        {
            "buffer" : 0,
            "byteLength" : 42108,
            "byteOffset" : 7952,
            "target" : 34962
        },
        {
            "buffer" : 0,
            "byteLength" : 42108,
            "byteOffset" : 50060,
            "target" : 34962
        },
        {
            "buffer" : 0,
            "byteLength" : 28072,
            "byteOffset" : 92168,
            "target" : 34962
        },
        {
            "buffer" : 0,
            "byteLength" : 14736,
            "byteOffset" : 120240,
            "target" : 34963
        },
        {
            "buffer" : 0,
            "byteLength" : 39072,
            "byteOffset" : 134976,
            "target" : 34962
        },
        {
            "buffer" : 0,
            "byteLength" : 39072,
            "byteOffset" : 174048,
            "target" : 34962
        },
        {
            "buffer" : 0,
            "byteLength" : 26048,
            "byteOffset" : 213120,
            "target" : 34962
        },
        {
            "buffer" : 0,
            "byteLength" : 15408,
            "byteOffset" : 239168,
            "target" : 34963
        }
    ],
    "samplers" : [
        {
            "magFilter" : 9729,
            "minFilter" : 9987
        }
    ],
    "buffers" : [
        {
            "byteLength" : 254576,
            "uri" : "1989_bathroom_Light_Windom_chrome.bin"
        }
    ]
}
