{
    "asset" : {
        "generator" : "Khronos glTF Blender I/O v3.3.27",
        "version" : "2.0"
    },
    "scene" : 0,
    "scenes" : [
        {
            "name" : "Scene",
            "nodes" : [
                0
            ]
        }
    ],
    "nodes" : [
        {
            "mesh" : 0,
            "name" : "W Black"
        }
    ],
    "materials" : [
        {
            "doubleSided" : true,
            "name" : "Lamp_black",
            "pbrMetallicRoughness" : {
                "baseColorFactor" : [
                    0,
                    0,
                    0,
                    1
                ],
                "roughnessFactor" : 0.5
            }
        },
        {
            "doubleSided" : true,
            "name" : "white",
            "pbrMetallicRoughness" : {
                "metallicFactor" : 0
            }
        }
    ],
    "meshes" : [
        {
            "name" : "Cube.066",
            "primitives" : [
                {
                    "attributes" : {
                        "POSITION" : 0,
                        "NORMAL" : 1,
                        "TEXCOORD_0" : 2
                    },
                    "indices" : 3,
                    "material" : 0
                },
                {
                    "attributes" : {
                        "POSITION" : 4,
                        "NORMAL" : 5,
                        "TEXCOORD_0" : 6
                    },
                    "indices" : 7,
                    "material" : 1
                }
            ]
        }
    ],
    "accessors" : [
        {
            "bufferView" : 0,
            "componentType" : 5126,
            "count" : 4525,
            "max" : [
                -24.476909637451172,
                7.735592365264893,
                38.12531661987305
            ],
            "min" : [
                -38.762725830078125,
                3.380990505218506,
                26.138919830322266
            ],
            "type" : "VEC3"
        },
        {
            "bufferView" : 1,
            "componentType" : 5126,
            "count" : 4525,
            "type" : "VEC3"
        },
        {
            "bufferView" : 2,
            "componentType" : 5126,
            "count" : 4525,
            "type" : "VEC2"
        },
        {
            "bufferView" : 3,
            "componentType" : 5123,
            "count" : 11592,
            "type" : "SCALAR"
        },
        {
            "bufferView" : 4,
            "componentType" : 5126,
            "count" : 4468,
            "max" : [
                -24.502925872802734,
                7.872873783111572,
                38.02909851074219
            ],
            "min" : [
                -38.74733352661133,
                3.553152084350586,
                26.0950870513916
            ],
            "type" : "VEC3"
        },
        {
            "bufferView" : 5,
            "componentType" : 5126,
            "count" : 4468,
            "type" : "VEC3"
        },
        {
            "bufferView" : 6,
            "componentType" : 5126,
            "count" : 4468,
            "type" : "VEC2"
        },
        {
            "bufferView" : 7,
            "componentType" : 5123,
            "count" : 11556,
            "type" : "SCALAR"
        }
    ],
    "bufferViews" : [
        {
            "buffer" : 0,
            "byteLength" : 54300,
            "byteOffset" : 0,
            "target" : 34962
        },
        {
            "buffer" : 0,
            "byteLength" : 54300,
            "byteOffset" : 54300,
            "target" : 34962
        },
        {
            "buffer" : 0,
            "byteLength" : 36200,
            "byteOffset" : 108600,
            "target" : 34962
        },
        {
            "buffer" : 0,
            "byteLength" : 23184,
            "byteOffset" : 144800,
            "target" : 34963
        },
        {
            "buffer" : 0,
            "byteLength" : 53616,
            "byteOffset" : 167984,
            "target" : 34962
        },
        {
            "buffer" : 0,
            "byteLength" : 53616,
            "byteOffset" : 221600,
            "target" : 34962
        },
        {
            "buffer" : 0,
            "byteLength" : 35744,
            "byteOffset" : 275216,
            "target" : 34962
        },
        {
            "buffer" : 0,
            "byteLength" : 23112,
            "byteOffset" : 310960,
            "target" : 34963
        }
    ],
    "buffers" : [
        {
            "byteLength" : 334072,
            "uri" : "2345_bathroom_Light_Windom_black.bin"
        }
    ]
}
