{
    "asset" : {
        "generator" : "Khronos glTF Blender I/O v3.3.27",
        "version" : "2.0"
    },
    "scene" : 0,
    "scenes" : [
        {
            "name" : "Scene",
            "nodes" : [
                0
            ]
        }
    ],
    "nodes" : [
        {
            "mesh" : 0,
            "name" : "Matte"
        }
    ],
    "materials" : [
        {
            "doubleSided" : true,
            "name" : "Matte Black",
            "pbrMetallicRoughness" : {
                "baseColorFactor" : [
                    0,
                    0,
                    0,
                    1
                ],
                "metallicFactor" : 0,
                "roughnessFactor" : 0.5
            }
        }
    ],
    "meshes" : [
        {
            "name" : "Cylinder.016",
            "primitives" : [
                {
                    "attributes" : {
                        "POSITION" : 0,
                        "NORMAL" : 1,
                        "TEXCOORD_0" : 2
                    },
                    "indices" : 3,
                    "material" : 0
                }
            ]
        }
    ],
    "accessors" : [
        {
            "bufferView" : 0,
            "componentType" : 5126,
            "count" : 15787,
            "max" : [
                -24.111169815063477,
                6.036912441253662,
                38.02485656738281
            ],
            "min" : [
                -39.13798904418945,
                1.3627896308898926,
                26.051565170288086
            ],
            "type" : "VEC3"
        },
        {
            "bufferView" : 1,
            "componentType" : 5126,
            "count" : 15787,
            "type" : "VEC3"
        },
        {
            "bufferView" : 2,
            "componentType" : 5126,
            "count" : 15787,
            "type" : "VEC2"
        },
        {
            "bufferView" : 3,
            "componentType" : 5123,
            "count" : 41544,
            "type" : "SCALAR"
        }
    ],
    "bufferViews" : [
        {
            "buffer" : 0,
            "byteLength" : 189444,
            "byteOffset" : 0,
            "target" : 34962
        },
        {
            "buffer" : 0,
            "byteLength" : 189444,
            "byteOffset" : 189444,
            "target" : 34962
        },
        {
            "buffer" : 0,
            "byteLength" : 126296,
            "byteOffset" : 378888,
            "target" : 34962
        },
        {
            "buffer" : 0,
            "byteLength" : 83088,
            "byteOffset" : 505184,
            "target" : 34963
        }
    ],
    "buffers" : [
        {
            "byteLength" : 588272,
            "uri" : "2345_bathroom_faucet_GibsonMateBlack.bin"
        }
    ]
}
