{
    "asset" : {
        "generator" : "Khronos glTF Blender I/O v3.3.27",
        "version" : "2.0"
    },
    "scene" : 0,
    "scenes" : [
        {
            "name" : "Scene",
            "nodes" : [
                0
            ]
        }
    ],
    "nodes" : [
        {
            "mesh" : 0,
            "name" : "Zire Midnight Black",
            "rotation" : [
                0,
                -0.7071068286895752,
                0,
                0.7071067094802856
            ],
            "translation" : [
                -37.008602142333984,
                3.771540403366089,
                24.77432632446289
            ]
        }
    ],
    "materials" : [
        {
            "doubleSided" : true,
            "name" : "Black_lamp",
            "pbrMetallicRoughness" : {
                "baseColorFactor" : [
                    0.0023219799622893333,
                    0.0023219799622893333,
                    0.0023219799622893333,
                    1
                ],
                "metallicFactor" : 0,
                "roughnessFactor" : 0.5
            }
        },
        {
            "alphaMode" : "BLEND",
            "doubleSided" : true,
            "name" : "Glass_lamp",
            "pbrMetallicRoughness" : {
                "baseColorFactor" : [
                    0.800000011920929,
                    0.800000011920929,
                    0.800000011920929,
                    0.10000000149011612
                ],
                "metallicFactor" : 0,
                "roughnessFactor" : 0.5
            }
        },
        {
            "alphaMode" : "BLEND",
            "doubleSided" : true,
            "name" : "Glass_lamp_yellow",
            "pbrMetallicRoughness" : {
                "baseColorFactor" : [
                    0.9386863112449646,
                    0.8509174585342407,
                    0.23924869298934937,
                    0.699999988079071
                ],
                "metallicFactor" : 0,
                "roughnessFactor" : 0.5
            }
        }
    ],
    "meshes" : [
        {
            "name" : "Cylinder.001",
            "primitives" : [
                {
                    "attributes" : {
                        "POSITION" : 0,
                        "NORMAL" : 1,
                        "TEXCOORD_0" : 2
                    },
                    "indices" : 3,
                    "material" : 0
                },
                {
                    "attributes" : {
                        "POSITION" : 4,
                        "NORMAL" : 5,
                        "TEXCOORD_0" : 6
                    },
                    "indices" : 7,
                    "material" : 1
                },
                {
                    "attributes" : {
                        "POSITION" : 8,
                        "NORMAL" : 9,
                        "TEXCOORD_0" : 10
                    },
                    "indices" : 11,
                    "material" : 2
                }
            ]
        }
    ],
    "accessors" : [
        {
            "bufferView" : 0,
            "componentType" : 5126,
            "count" : 2326,
            "max" : [
                1.117386817932129,
                0.7358692288398743,
                0.11673740297555923
            ],
            "min" : [
                -1.1217849254608154,
                -0.13882920145988464,
                -0.11702560633420944
            ],
            "type" : "VEC3"
        },
        {
            "bufferView" : 1,
            "componentType" : 5126,
            "count" : 2326,
            "type" : "VEC3"
        },
        {
            "bufferView" : 2,
            "componentType" : 5126,
            "count" : 2326,
            "type" : "VEC2"
        },
        {
            "bufferView" : 3,
            "componentType" : 5123,
            "count" : 4284,
            "type" : "SCALAR"
        },
        {
            "bufferView" : 4,
            "componentType" : 5126,
            "count" : 144,
            "max" : [
                1.1134843826293945,
                -0.059681136161088943,
                0.11283496767282486
            ],
            "min" : [
                -1.117882490158081,
                -0.4058546721935272,
                -0.11312317103147507
            ],
            "type" : "VEC3"
        },
        {
            "bufferView" : 5,
            "componentType" : 5126,
            "count" : 144,
            "type" : "VEC3"
        },
        {
            "bufferView" : 6,
            "componentType" : 5126,
            "count" : 144,
            "type" : "VEC2"
        },
        {
            "bufferView" : 7,
            "componentType" : 5123,
            "count" : 432,
            "type" : "SCALAR"
        },
        {
            "bufferView" : 8,
            "componentType" : 5126,
            "count" : 1044,
            "max" : [
                1.0427618026733398,
                -0.13814494013786316,
                0.042371783405542374
            ],
            "min" : [
                -1.0470874309539795,
                -0.2587439715862274,
                -0.04207253083586693
            ],
            "type" : "VEC3"
        },
        {
            "bufferView" : 9,
            "componentType" : 5126,
            "count" : 1044,
            "type" : "VEC3"
        },
        {
            "bufferView" : 10,
            "componentType" : 5126,
            "count" : 1044,
            "type" : "VEC2"
        },
        {
            "bufferView" : 11,
            "componentType" : 5123,
            "count" : 4536,
            "type" : "SCALAR"
        }
    ],
    "bufferViews" : [
        {
            "buffer" : 0,
            "byteLength" : 27912,
            "byteOffset" : 0,
            "target" : 34962
        },
        {
            "buffer" : 0,
            "byteLength" : 27912,
            "byteOffset" : 27912,
            "target" : 34962
        },
        {
            "buffer" : 0,
            "byteLength" : 18608,
            "byteOffset" : 55824,
            "target" : 34962
        },
        {
            "buffer" : 0,
            "byteLength" : 8568,
            "byteOffset" : 74432,
            "target" : 34963
        },
        {
            "buffer" : 0,
            "byteLength" : 1728,
            "byteOffset" : 83000,
            "target" : 34962
        },
        {
            "buffer" : 0,
            "byteLength" : 1728,
            "byteOffset" : 84728,
            "target" : 34962
        },
        {
            "buffer" : 0,
            "byteLength" : 1152,
            "byteOffset" : 86456,
            "target" : 34962
        },
        {
            "buffer" : 0,
            "byteLength" : 864,
            "byteOffset" : 87608,
            "target" : 34963
        },
        {
            "buffer" : 0,
            "byteLength" : 12528,
            "byteOffset" : 88472,
            "target" : 34962
        },
        {
            "buffer" : 0,
            "byteLength" : 12528,
            "byteOffset" : 101000,
            "target" : 34962
        },
        {
            "buffer" : 0,
            "byteLength" : 8352,
            "byteOffset" : 113528,
            "target" : 34962
        },
        {
            "buffer" : 0,
            "byteLength" : 9072,
            "byteOffset" : 121880,
            "target" : 34963
        }
    ],
    "buffers" : [
        {
            "byteLength" : 130952,
            "uri" : "2345_kitchen_Light_ZireMidnightBlack.bin"
        }
    ]
}
